<svg xmlns="http://www.w3.org/2000/svg" width="82.273" height="54.302" viewBox="0 0 82.273 54.302"><defs><style>.a{fill:#44535b;}</style></defs><path class="a" d="M624.416,101.991c0,11.293-10.107,17.16-17.159,17.16s-17.865-6.808-17.865-19.511c0-19.393,15.514-33.38,26.563-34.791.821,1.411,1.88,3.526,1.88,3.526-4.937,2-18.57,11.284-19.276,19.746,3.761-2.351,5.382-3.526,9.874-3.526C617.835,84.6,624.416,93.293,624.416,101.991Zm-47.248,0c0,11.293-10.108,17.16-17.161,17.16s-17.864-6.808-17.864-19.511c0-19.393,15.513-33.38,26.562-34.791.822,1.411,1.88,3.526,1.88,3.526-4.936,2-18.57,11.284-19.275,19.746,3.761-2.351,5.381-3.526,9.873-3.526C570.585,84.6,577.168,93.293,577.168,101.991Z" transform="translate(-542.143 -64.849)"/></svg>